<svg xmlns="http://www.w3.org/2000/svg" xmlns:xlink="http://www.w3.org/1999/xlink" version="1.1" x="0px" y="0px" viewBox="0 0 32 40" enable-background="new 0 0 32 32" xml:space="preserve"><g display="none"><rect x="-70.895" y="-85.339" display="inline" fill="#000000" width="435.561" height="207"/></g><g display="none"><g display="inline"><path d="M19.938,9.202c-0.937,0-1.699,0.756-1.699,1.685s0.763,1.685,1.699,1.685s1.698-0.756,1.698-1.685    S20.874,9.202,19.938,9.202z M19.938,11.571c-0.386,0-0.699-0.307-0.699-0.685s0.313-0.685,0.699-0.685    c0.385,0,0.698,0.307,0.698,0.685S20.322,11.571,19.938,11.571z"/><path d="M16,9.202c-0.937,0-1.698,0.756-1.698,1.685s0.762,1.685,1.698,1.685s1.698-0.756,1.698-1.685S16.937,9.202,16,9.202z     M16,11.571c-0.385,0-0.698-0.307-0.698-0.685s0.313-0.685,0.698-0.685s0.698,0.307,0.698,0.685S16.385,11.571,16,11.571z"/><path d="M12.062,9.202c-0.937,0-1.698,0.756-1.698,1.685s0.762,1.685,1.698,1.685s1.699-0.756,1.699-1.685    S12.999,9.202,12.062,9.202z M12.062,11.571c-0.385,0-0.698-0.307-0.698-0.685s0.313-0.685,0.698-0.685    c0.386,0,0.699,0.307,0.699,0.685S12.448,11.571,12.062,11.571z"/><path d="M20.672,4.544h-9.344c-1.94,0-3.519,1.616-3.519,3.603v5.252c0,1.675,1.122,3.105,2.675,3.496v3.624l4.277-3.518h5.91    c1.94,0,3.519-1.616,3.519-3.603V8.146C24.19,6.16,22.612,4.544,20.672,4.544z M23.19,13.398c0,1.435-1.13,2.603-2.519,2.603    h-6.268l-2.92,2.4v-2.366l-0.441-0.052c-1.273-0.15-2.233-1.262-2.233-2.585V8.146c0-1.435,1.13-2.603,2.519-2.603h9.344    c1.389,0,2.519,1.168,2.519,2.603V13.398z"/><path d="M28.155,1H3.845C1.722,1,0,2.722,0,4.846v15.443c0,2.124,1.722,3.845,3.845,3.845h8.061L11.061,30H8.75v1h14.5v-1h-2.311    l-0.845-5.866h8.061c2.124,0,3.845-1.722,3.845-3.845V4.846C32,2.722,30.278,1,28.155,1z M12.072,30l0.314-2.178l7.012-1.502    l0.53,3.68H12.072z M19.255,25.327l-6.717,1.439l0.379-2.632h6.166L19.255,25.327z M31,20.288c0,1.569-1.276,2.845-2.845,2.845    H3.845C2.276,23.134,1,21.857,1,20.288V4.846C1,3.277,2.276,2,3.845,2h24.309C29.724,2,31,3.277,31,4.846V20.288z"/></g></g><g display="none"><g display="inline"><path d="M20.672,5.544h-9.344c-1.389,0-2.519,1.168-2.519,2.603v5.252c0,1.323,0.96,2.435,2.233,2.585l0.441,0.052v2.366l2.92-2.4    h6.268c1.389,0,2.519-1.168,2.519-2.603V8.146C23.19,6.712,22.061,5.544,20.672,5.544z M12.063,12.071    c-0.662,0-1.199-0.53-1.199-1.185s0.537-1.185,1.199-1.185s1.199,0.53,1.199,1.185S12.725,12.071,12.063,12.071z M16,12.071    c-0.662,0-1.199-0.53-1.199-1.185S15.338,9.702,16,9.702s1.199,0.53,1.199,1.185S16.662,12.071,16,12.071z M19.937,12.071    c-0.662,0-1.199-0.53-1.199-1.185s0.537-1.185,1.199-1.185s1.199,0.53,1.199,1.185S20.599,12.071,19.937,12.071z"/><path d="M28.155,1H3.845C1.722,1,0,2.722,0,4.846v15.443c0,2.124,1.722,3.845,3.845,3.845h8.057L11.036,30H8.75v1h14.5v-1h-2.285    l-0.867-5.866h8.057c2.124,0,3.845-1.722,3.845-3.845V4.846C32,2.722,30.278,1,28.155,1z M24.19,13.398    c0,1.986-1.578,3.603-3.519,3.603h-5.91l-4.277,3.518v-3.624c-1.553-0.391-2.675-1.821-2.675-3.496V8.146    c0-1.986,1.578-3.603,3.519-3.603h9.344c1.94,0,3.519,1.616,3.519,3.603V13.398z"/></g></g><g><g><path d="M19.938,9.452c-0.799,0-1.449,0.644-1.449,1.435s0.65,1.435,1.449,1.435s1.448-0.644,1.448-1.435    S20.736,9.452,19.938,9.452z M19.938,11.821c-0.523,0-0.949-0.419-0.949-0.935s0.426-0.935,0.949-0.935    c0.522,0,0.948,0.419,0.948,0.935S20.46,11.821,19.938,11.821z"/><path d="M16,9.452c-0.799,0-1.448,0.644-1.448,1.435s0.649,1.435,1.448,1.435s1.448-0.644,1.448-1.435S16.799,9.452,16,9.452z     M16,11.821c-0.522,0-0.948-0.419-0.948-0.935S15.478,9.952,16,9.952s0.948,0.419,0.948,0.935S16.522,11.821,16,11.821z"/><path d="M12.062,9.452c-0.799,0-1.448,0.644-1.448,1.435s0.649,1.435,1.448,1.435s1.449-0.644,1.449-1.435    S12.861,9.452,12.062,9.452z M12.062,11.821c-0.522,0-0.948-0.419-0.948-0.935s0.426-0.935,0.948-0.935    c0.523,0,0.949,0.419,0.949,0.935S12.586,11.821,12.062,11.821z"/><path d="M20.672,4.794h-9.344c-1.803,0-3.269,1.504-3.269,3.353v5.252c0,1.627,1.135,3.005,2.675,3.296v3.295l3.938-3.238h5.999    c1.803,0,3.269-1.504,3.269-3.353V8.146C23.94,6.298,22.475,4.794,20.672,4.794z M23.44,13.398c0,1.573-1.242,2.853-2.769,2.853    h-6.179l-3.259,2.68v-2.674l-0.221-0.025c-1.399-0.165-2.454-1.383-2.454-2.833V8.146c0-1.573,1.242-2.853,2.769-2.853h9.344    c1.526,0,2.769,1.279,2.769,2.853V13.398z"/><path d="M28.155,1H3.845C1.722,1,0,2.722,0,4.846v15.443c0,2.124,1.722,3.845,3.845,3.845h8.314l-0.881,6.116H8.75v0.5h14.5v-0.5    h-2.528l-0.881-6.116h8.314c2.124,0,3.845-1.722,3.845-3.845V4.846C32,2.722,30.278,1,28.155,1z M11.783,30.25l0.38-2.636    l7.445-1.595l0.61,4.232H11.783z M19.536,25.523l-7.298,1.564l0.425-2.952h6.672L19.536,25.523z M31.5,20.288    c0,1.845-1.501,3.345-3.345,3.345H3.845c-1.845,0-3.345-1.501-3.345-3.345V4.846C0.5,3.001,2.001,1.5,3.845,1.5h24.309    c1.845,0,3.345,1.501,3.345,3.345V20.288z"/></g></g><g display="none"><g display="inline"><g><g><path d="M28.155,2.75C29.172,2.75,30,3.578,30,4.596v15.443c0,1.018-0.828,1.845-1.845,1.845H3.845      C2.828,21.884,2,21.056,2,20.038V4.596C2,3.578,2.828,2.75,3.845,2.75H28.155 M28.155,0.75H3.845C1.722,0.75,0,2.472,0,4.596      v15.443c0,2.124,1.722,3.845,3.845,3.845h24.309c2.124,0,3.845-1.722,3.845-3.845V4.596C32,2.472,30.278,0.75,28.155,0.75      L28.155,0.75z"/></g></g><line fill="none" stroke="#000000" stroke-width="2" stroke-miterlimit="10" x1="8.75" y1="30.25" x2="23.25" y2="30.25"/><g><line fill="none" stroke="#000000" stroke-width="2" stroke-miterlimit="10" x1="11.485" y1="30.312" x2="12.457" y2="23.568"/><line fill="none" stroke="#000000" stroke-width="2" stroke-miterlimit="10" x1="20.515" y1="30.312" x2="19.543" y2="23.568"/><line fill="none" stroke="#000000" stroke-width="2" stroke-miterlimit="10" x1="19.783" y1="25.475" x2="11.928" y2="27.158"/></g></g><path display="inline" d="M20.296,5.544h-8.535c-1.516,0-2.757,1.276-2.757,2.837v4.802c0,1.451,1.073,2.655,2.443,2.817v2.725   l3.286-2.705h5.562c1.516,0,2.757-1.276,2.757-2.837V8.381C23.053,6.821,21.812,5.544,20.296,5.544z M12.432,11.969   c-0.605,0-1.095-0.485-1.095-1.083c0-0.598,0.49-1.083,1.095-1.083c0.605,0,1.095,0.485,1.095,1.083   C13.527,11.484,13.037,11.969,12.432,11.969z M16.028,11.969c-0.605,0-1.095-0.485-1.095-1.083c0-0.598,0.49-1.083,1.095-1.083   c0.605,0,1.095,0.485,1.095,1.083C17.123,11.484,16.633,11.969,16.028,11.969z M19.625,11.969c-0.605,0-1.095-0.485-1.095-1.083   c0-0.598,0.49-1.083,1.095-1.083c0.605,0,1.095,0.485,1.095,1.083C20.719,11.484,20.229,11.969,19.625,11.969z"/></g><text x="0" y="47" fill="#000000" font-size="3px" font-weight="bold" font-family="'Helvetica Neue', Helvetica, Arial-Unicode, Arial, Sans-serif">AlfredoCreates.com/icons &amp; Flaticondesign.com</text><text x="0" y="50" fill="#000000" font-size="3px" font-weight="bold" font-family="'Helvetica Neue', Helvetica, Arial-Unicode, Arial, Sans-serif">from the Noun Project</text></svg>