<svg xmlns="http://www.w3.org/2000/svg" xmlns:xlink="http://www.w3.org/1999/xlink" version="1.1" x="0px" y="0px" viewBox="0 0 16 20" style="enable-background:new 0 0 16 16;" xml:space="preserve"><g><path d="M14,1H2C1.448,1,1,1.448,1,2v11c0,0.552,0.448,1,1,1h12c0.552,0,1-0.448,1-1V2C15,1.448,14.552,1,14,1z M11,2h2v1h-2V2z    M14,13H2V4h12V13z"/><polygon points="4.53,11.53 7.561,8.5 4.53,5.47 3.47,6.53 5.439,8.5 3.47,10.47  "/><rect x="8" y="9" width="5" height="2"/></g><text x="0" y="31" fill="#000000" font-size="5px" font-weight="bold" font-family="'Helvetica Neue', Helvetica, Arial-Unicode, Arial, Sans-serif">Created by icon 54</text><text x="0" y="36" fill="#000000" font-size="5px" font-weight="bold" font-family="'Helvetica Neue', Helvetica, Arial-Unicode, Arial, Sans-serif">from the Noun Project</text></svg>