<svg xmlns="http://www.w3.org/2000/svg" xmlns:xlink="http://www.w3.org/1999/xlink" version="1.1" x="0px" y="0px" viewBox="0 0 100 125" enable-background="new 0 0 100 100" xml:space="preserve"><path d="M50.2,13.4L50.2,13.4c-0.7,0-1.3-0.6-1.3-1.3l-0.1-7.3c0-0.7,0.6-1.3,1.3-1.3l0,0c0.7,0,1.3,0.6,1.3,1.3l0.1,7.3  C51.5,12.8,50.9,13.4,50.2,13.4z M57,14.9l5.4-5C63,9.5,63,8.7,62.5,8.2l0,0c-0.5-0.5-1.3-0.6-1.8-0.1l-5.4,5  c-0.5,0.5-0.6,1.3-0.1,1.8l0,0C55.7,15.4,56.5,15.4,57,14.9z M38,8.4L38,8.4c-0.5,0.5-0.4,1.3,0.1,1.8l5.5,4.8  c0.5,0.5,1.3,0.4,1.8-0.1l0,0c0.5-0.5,0.4-1.3-0.1-1.8l-5.5-4.8C39.2,7.8,38.4,7.9,38,8.4z M48.4,23c-0.3,2.1-0.6,4.1-1,6.2  c-0.2,1.2-0.3,2.5-0.8,3.6c-0.7,1.6-2.1,2.8-3.2,4.1c-1,1.1-2,2.2-2.9,3.3c0,0-0.3,0.4-0.3,0.4l-0.4,1.6l4.3,28.4  c0.8,3.1-5.5,1.1-5.6,1.2c-1.1,4.6-1.8,9.4-4.3,13.4c-1.9,3-3.8,5.9-5.7,8.9c-0.8,1.3-1.5,2.7-3.1,3.1c-1.8,0.5-4-0.3-4.7-2.1  c-1.4-3.2,1.9-6.5,3.8-9.2c1.4-2,2.7-4.2,4-6.3c0,0,2.4-9.7,2.4-9.7s-2.8-0.7-2.8-0.7c-0.1,0-2.3,5.8-2.5,6.2  c-0.7,1.8-1.2,4-2.3,5.5c-0.9,1.4-2.7,2-4,2.9c-2.3,1.6-4.7,3.1-7,4.7c-0.2,0.1-0.4,0.2-0.6,0.3c-0.1,0-0.1,0-0.2,0.1  c-3.4,1.6-6.5-2.4-4.8-5.3c1.3-2.2,4-3.3,6-4.6c1.4-0.9,2.8-1.8,4.2-2.8c0,0,3.6-8.9,3.6-8.9c-1.8-0.5-3.7-0.9-5.5-1.4  c-0.7-0.2-2.2-0.2-2.4-1.1c-0.2-0.9,0.9-2,1.3-2.7c1.1-1.8,8.8-14.1,11.4-18.3c0,0,0-0.1,0-0.1L7.6,35.9c-1.9-0.8-2.8-2.9-2.1-4.6  C6,30,7.3,29.2,8.7,29.2c0.5,0,0.9,0.1,1.4,0.3L28.3,37l5.6,0l6.3-7.1l1.3-8c0.4-2.3,2.3-3.1,4-2.8C47.2,19.4,48.7,20.8,48.4,23z   M22.5,80.6C22.5,80.6,22.5,80.6,22.5,80.6C22.5,80.6,22.5,80.6,22.5,80.6z M22.5,80.7C22.5,80.7,22.5,80.6,22.5,80.7  C22.5,80.6,22.5,80.7,22.5,80.7C22.5,80.7,22.5,80.7,22.5,80.7z M22.6,80.5C22.6,80.5,22.6,80.5,22.6,80.5c-0.1,0.1-0.1,0.1-0.1,0.2  C22.5,80.6,22.5,80.6,22.6,80.5C22.6,80.5,22.6,80.5,22.6,80.5z M23.4,28.5c0-3.6,2.9-6.5,6.5-6.5h0c0,0,0,0,0,0c0,0,0,0,0,0  c1.7,0,3.4,0.6,4.6,1.9c1.2,1.2,1.9,2.8,1.9,4.6c0,3.6-2.9,6.6-6.5,6.6h-0.1C26.3,35,23.3,32.1,23.4,28.5z M74.5,43.8  C74.5,43.8,74.5,43.8,74.5,43.8c1.9,3.1,9.3,15.1,11.2,18c0.4,0.7,1.9,2.3,1.7,3c-0.3,1-6.5,2.3-8.1,2.6c0,0,3.6,8.9,3.6,8.9  c2,1.3,4,2.6,6,4c1.8,1.2,4.9,2.8,4.6,5.4c-0.2,2.8-3.7,4.5-6.1,2.9c-2.7-1.8-5.4-3.6-8.1-5.4c-0.7-0.5-1.5-0.9-2.2-1.5  c-1.2-1-1.5-2.5-2.1-3.9c-0.6-1.4-1.2-2.9-1.7-4.3c-0.1-0.2-1.6-4.3-1.7-4.2c0,0-2.8,0.7-2.8,0.7l2.4,9.7c1.4,2.2,2.8,4.4,4.2,6.6  c1.5,2.4,5.1,6.2,3.6,9.2c-0.9,1.7-3.1,2.5-4.9,1.8c-1.4-0.6-2.1-1.9-2.8-3.1c-0.9-1.4-1.8-2.8-2.7-4.2c-1.4-2.3-3.1-4.5-4.3-6.8  c-1-1.9-1.2-4.2-1.7-6.3c-0.4-1.6-0.8-3.3-1.2-4.9c-1.4,0.4-5.8,1.3-5.5-1.7c0.2-1.6,3.7-23.2,4.2-28c0,0-0.4-1.6-0.4-1.6l-0.3-0.4  c-1.3-1.5-2.7-3-4-4.5c-0.8-0.9-1.7-1.8-2.2-3c-0.6-1.6-0.7-3.3-1-4.9c-0.3-1.6-0.5-3.2-0.8-4.8c-0.1-0.9,0.1-1.9,0.6-2.6  c0.6-0.8,1.4-1.3,2.3-1.4c0.2,0,0.4,0,0.5,0c0,0,0,0,0,0c1.7,0,3.2,1.3,3.5,3l1.3,8l6.3,7.1l5.6,0l18.1-7.6c0.4-0.2,0.9-0.4,1.4-0.4  c1.4,0,2.7,0.9,3.2,2.2c0.7,1.7-0.3,3.9-2.1,4.7L74.5,43.8z M77.5,80.7C77.5,80.7,77.5,80.7,77.5,80.7  C77.5,80.7,77.5,80.6,77.5,80.7C77.5,80.6,77.5,80.7,77.5,80.7z M77.5,80.6C77.5,80.6,77.5,80.6,77.5,80.6  C77.5,80.6,77.5,80.6,77.5,80.6z M77.5,80.6C77.5,80.6,77.5,80.6,77.5,80.6C77.5,80.6,77.5,80.6,77.5,80.6z M70,35L70,35  c3.7,0,6.6-2.9,6.6-6.5c0-3.6-2.9-6.5-6.5-6.5c0,0,0,0,0,0c0,0,0,0,0,0c-1.7,0-3.4,0.6-4.6,1.9c-1.2,1.2-1.9,2.9-1.9,4.6  C63.6,32,66.5,35,70,35z"/><text x="0" y="115" fill="#000000" font-size="5px" font-weight="bold" font-family="'Helvetica Neue', Helvetica, Arial-Unicode, Arial, Sans-serif">Created by Lorie Shaull</text><text x="0" y="120" fill="#000000" font-size="5px" font-weight="bold" font-family="'Helvetica Neue', Helvetica, Arial-Unicode, Arial, Sans-serif">from the Noun Project</text></svg>