<svg xmlns="http://www.w3.org/2000/svg" viewBox="0 0 64 80" x="0px" y="0px"><defs><style>.cls-1{fill:none;stroke:#000;stroke-linejoin:round;stroke-width:2px;}</style></defs><title>cleaning-Brush-duster-mop-Bucket</title><g><line class="cls-1" x1="45" y1="39" x2="45" y2="22"/><line class="cls-1" x1="49" y1="22" x2="49" y2="39"/><polygon class="cls-1" points="33 3 61 3 59 17 35 17 33 3"/><rect class="cls-1" x="35" y="17" width="24" height="5" transform="translate(94 39) rotate(180)"/><rect class="cls-1" x="31" y="51" width="30" height="10"/><path class="cls-1" d="M31,51V49a2,2,0,0,1,2-2H55a2,2,0,0,0,2-2h0a2,2,0,0,0-2-2H43a2,2,0,0,1-2-2h0a2,2,0,0,1,2-2H59a2,2,0,0,1,2,2V51"/><line class="cls-1" x1="2" y1="13" x2="8" y2="13"/><line class="cls-1" x1="5" y1="10" x2="5" y2="16"/><line class="cls-1" x1="55" y1="31" x2="61" y2="31"/><line class="cls-1" x1="58" y1="28" x2="58" y2="34"/><line class="cls-1" x1="17" y1="5" x2="23" y2="5"/><line class="cls-1" x1="20" y1="2" x2="20" y2="8"/><line class="cls-1" x1="45" y1="43" x2="45" y2="47"/><line class="cls-1" x1="49" y1="43" x2="49" y2="47"/><path class="cls-1" d="M10,31H3V27h7V41a2,2,0,0,0,2,2h0a2,2,0,0,0,2-2V34a2,2,0,0,1,2-2h0a2,2,0,0,1,2,2v2a2,2,0,0,0,2,2h0a2,2,0,0,0,2-2V27H39v4H22"/><path class="cls-1" d="M31,27a6,6,0,0,0-4.017-5.658A6,6,0,1,0,16,18c0,.079.009.156.012.234A8.976,8.976,0,0,0,5,27"/><path class="cls-1" d="M16.037,18.232A8.956,8.956,0,0,1,19.657,20"/><line class="cls-1" x1="36" y1="55" x2="36" y2="61"/><line class="cls-1" x1="41" y1="55" x2="41" y2="61"/><line class="cls-1" x1="46" y1="55" x2="46" y2="61"/><line class="cls-1" x1="51" y1="55" x2="51" y2="61"/><line class="cls-1" x1="56" y1="55" x2="56" y2="61"/><line class="cls-1" x1="55" y1="3" x2="55" y2="10"/><line class="cls-1" x1="51" y1="3" x2="51" y2="7"/><line class="cls-1" x1="39" y1="3" x2="39" y2="10"/><line class="cls-1" x1="43" y1="3" x2="43" y2="6"/><line class="cls-1" x1="39" y1="12" x2="39" y2="14"/><polyline class="cls-1" points="31 61 7 61 5 31"/><line class="cls-1" x1="37" y1="31" x2="35.933" y2="47"/></g><text x="0" y="79" fill="#000000" font-size="5px" font-weight="bold" font-family="'Helvetica Neue', Helvetica, Arial-Unicode, Arial, Sans-serif">Created by Nhor</text><text x="0" y="84" fill="#000000" font-size="5px" font-weight="bold" font-family="'Helvetica Neue', Helvetica, Arial-Unicode, Arial, Sans-serif">from the Noun Project</text></svg>