<svg xmlns="http://www.w3.org/2000/svg" width="728.769" height="600.378" viewBox="0 0 192.82 158.85"><defs><marker orient="auto" id="c" overflow="visible"><path d="M-1.926-1.21L1.352-.005l-3.278 1.206a2.05 2.05 0 0 0 0-2.411z" fill-rule="evenodd" stroke="#000" stroke-width=".1875" stroke-linejoin="round"/></marker><marker orient="auto" id="d" overflow="visible"><path d="M-1.926-1.21L1.352-.005l-3.278 1.206a2.05 2.05 0 0 0 0-2.411z" fill-rule="evenodd" stroke="#000" stroke-width=".1875" stroke-linejoin="round"/></marker><marker orient="auto" id="e" overflow="visible"><path d="M-1.926-1.21L1.352-.005l-3.278 1.206a2.05 2.05 0 0 0 0-2.411z" fill-rule="evenodd" stroke="#000" stroke-width=".1875" stroke-linejoin="round"/></marker><marker orient="auto" id="f" overflow="visible"><path d="M-1.926-1.21L1.352-.005l-3.278 1.206a2.05 2.05 0 0 0 0-2.411z" fill-rule="evenodd" stroke="#000" stroke-width=".1875" stroke-linejoin="round"/></marker><marker orient="auto" id="g" overflow="visible"><path d="M-1.926-1.21L1.352-.005l-3.278 1.206a2.05 2.05 0 0 0 0-2.411z" fill-rule="evenodd" stroke="#000" stroke-width=".1875" stroke-linejoin="round"/></marker><marker orient="auto" id="h" overflow="visible"><path d="M-1.926-1.21L1.352-.005l-3.278 1.206a2.05 2.05 0 0 0 0-2.411z" fill-rule="evenodd" stroke="#000" stroke-width=".1875" stroke-linejoin="round"/></marker></defs><g transform="translate(-18.971 -37.25)"><path class="cls-1" d="M50.39 54.013v-2.638a7.105 7.105 0 1 0-12.1-5.987h-2.135a4.055 4.055 0 0 0-2.034 7.57v2.225a6.087 6.087 0 0 1 2.034-11.828c.173 0 .345.036.508.051A9.151 9.151 0 1 1 50.39 54.013zm-11.775.678l2.624 1.772V48.44a1.017 1.017 0 0 1 2.033 0v8.024l2.624-1.772a.895.895 0 0 1 1.322.413 1.236 1.236 0 0 1-.356 1.543l-3.823 2.582a.196.196 0 0 1-.051.04.908.908 0 0 1-.255.22.848.848 0 0 1-.376.111.086.086 0 0 0-.02 0l-.03.008c-.02 0-.03.009-.051.009a.223.223 0 0 1-.051-.01l-.03-.007a.162.162 0 0 0-.03-.006.872.872 0 0 1-.265-.053c-.03-.015-.061-.038-.102-.057a1.211 1.211 0 0 1-.193-.132c-.03-.03-.051-.074-.082-.109L37.65 56.64a1.236 1.236 0 0 1-.355-1.543.895.895 0 0 1 1.321-.406z"/><path fill="none" stroke="#030000" stroke-width="1.5" d="M19.971 69.274h44.573v18.813H19.971z"/><circle cx="42.258" cy="124.221" r="11.867" fill="none" stroke="#030000" stroke-width="2"/><path class="cls-1" d="M187.49 138.294v-2.638a7.105 7.105 0 1 0-12.1-5.987h-2.136a4.055 4.055 0 0 0-2.034 7.57v2.225a6.087 6.087 0 0 1 2.034-11.828c.173 0 .346.036.508.051a9.151 9.151 0 1 1 13.727 10.607zm-11.775.678l2.623 1.772v-8.024a1.017 1.017 0 0 1 2.034 0v8.024l2.623-1.772a.895.895 0 0 1 1.322.413 1.236 1.236 0 0 1-.356 1.543l-3.823 2.582a.196.196 0 0 1-.051.04.908.908 0 0 1-.254.22.848.848 0 0 1-.377.111.086.086 0 0 0-.02 0l-.03.007c-.02 0-.03.01-.051.01a.223.223 0 0 1-.05-.01l-.031-.007a.162.162 0 0 0-.03-.006.872.872 0 0 1-.265-.053c-.03-.015-.061-.038-.102-.057a1.211 1.211 0 0 1-.193-.132c-.03-.03-.05-.074-.081-.109l-3.854-2.603a1.236 1.236 0 0 1-.356-1.543.895.895 0 0 1 1.322-.406z"/><text style="line-height:1.25" x="69.465" y="46.298" font-weight="400" font-size="8.467" font-family="sans-serif" letter-spacing="0" word-spacing="0" stroke-width=".265"><tspan x="69.465" y="46.298" style="-inkscape-font-specification:'Roboto Slab'" font-family="Roboto Slab">Project</tspan><tspan x="69.465" y="56.881" style="-inkscape-font-specification:'Roboto Slab'" font-family="Roboto Slab">Download</tspan></text><text style="line-height:1.25" x="69.465" y="76.545" font-weight="400" font-size="8.467" font-family="sans-serif" letter-spacing="0" word-spacing="0" stroke-width=".265"><tspan x="69.465" y="76.545" style="-inkscape-font-specification:'Roboto Slab'" font-family="Roboto Slab">Directory of</tspan><tspan x="69.465" y="87.128" style="-inkscape-font-specification:'Roboto Slab'" font-family="Roboto Slab">R Files</tspan></text><path id="a" fill="none" stroke="#030000" stroke-width="1.5" d="M19.971 160.355h44.573v18.813H19.971z"/><circle cx="109.637" cy="149.365" r="11.867" fill="none" stroke="#030000" stroke-width="2"/><path fill="none" stroke="#030000" stroke-width="1.5" d="M157.07 160.355h44.573v18.813H157.07z"/><text style="line-height:1.25" x="60.055" y="126.557" font-weight="400" font-size="8.467" font-family="sans-serif" letter-spacing="0" word-spacing="0" stroke-width=".265"><tspan x="60.055" y="126.557" style="line-height:0"><tspan style="-inkscape-font-specification:FreeMono" font-family="FreeMono">bash</tspan> <tspan style="-inkscape-font-specification:'Roboto Slab'" font-family="Roboto Slab">script</tspan></tspan></text><path id="b" fill="none" stroke-width="2.712" d="M76.654 173.523h68.307v22.576H76.654z"/><path d="M42.258 91.394v14.761" fill="none" stroke="#000" stroke-width="2" marker-end="url(#c)"/><path d="M42.248 139.395v14.761" fill="none" stroke="#000" stroke-width="2" marker-end="url(#d)"/><path d="M69.31 170.373l21.708-13.025" fill="none" stroke="#000" stroke-width="2" marker-end="url(#e)"/><path d="M126.216 142.082s11.404-5.927 17.51-7.815c5.669-1.752 17.512-3.184 17.512-3.184" fill="none" stroke="#000" stroke-width="2" marker-end="url(#f)"/><path d="M152.658 172.416s-8.661-1.416-12.446-3.473c-4.864-2.644-12.445-10.999-12.445-10.999" fill="none" stroke="#000" stroke-width="2" marker-end="url(#g)"/><text style="line-height:1.25" x="146.212" y="116.102" font-weight="400" font-size="10.583" font-family="sans-serif" letter-spacing="0" word-spacing="0" stroke-width=".265"><tspan x="146.212" y="116.102" font-size="8.467"><tspan style="-inkscape-font-specification:FreeMono" font-family="FreeMono">cran</tspan> <tspan style="-inkscape-font-specification:'Roboto Slab'" font-family="Roboto Slab">repository</tspan></tspan></text><path d="M194.203 133.614s5.255 4.932 5.788 8.249c.585 3.631-3.183 10.564-3.183 10.564" fill="none" stroke="#000" stroke-width="2" marker-end="url(#h)"/></g></svg>