<?xml version="1.0" encoding="UTF-8" standalone="no"?>
<svg
   xmlns:dc="http://purl.org/dc/elements/1.1/"
   xmlns:cc="http://creativecommons.org/ns#"
   xmlns:rdf="http://www.w3.org/1999/02/22-rdf-syntax-ns#"
   xmlns:svg="http://www.w3.org/2000/svg"
   xmlns="http://www.w3.org/2000/svg"
   xmlns:sodipodi="http://sodipodi.sourceforge.net/DTD/sodipodi-0.dtd"
   xmlns:inkscape="http://www.inkscape.org/namespaces/inkscape"
   width="728.769"
   height="600.378"
   viewBox="0 0 192.82 158.85"
   version="1.1"
   id="svg891"
   sodipodi:docname="regex_flow_bash.svg"
   inkscape:version="0.92.3 (2405546, 2018-03-11)">
  <metadata
     id="metadata895">
    <rdf:RDF>
      <cc:Work
         rdf:about="">
        <dc:format>image/svg+xml</dc:format>
        <dc:type
           rdf:resource="http://purl.org/dc/dcmitype/StillImage" />
      </cc:Work>
    </rdf:RDF>
  </metadata>
  <sodipodi:namedview
     pagecolor="#ffffff"
     bordercolor="#666666"
     borderopacity="1"
     objecttolerance="10"
     gridtolerance="10"
     guidetolerance="10"
     inkscape:pageopacity="0"
     inkscape:pageshadow="2"
     inkscape:window-width="1853"
     inkscape:window-height="1025"
     id="namedview893"
     showgrid="false"
     inkscape:zoom="1.4007842"
     inkscape:cx="359.74423"
     inkscape:cy="300.189"
     inkscape:window-x="67"
     inkscape:window-y="27"
     inkscape:window-maximized="1"
     inkscape:current-layer="g889" />
  <defs
     id="defs833">
    <marker
       orient="auto"
       id="c"
       overflow="visible">
      <path
         d="M-1.926-1.21L1.352-.005l-3.278 1.206a2.05 2.05 0 0 0 0-2.411z"
         fill-rule="evenodd"
         stroke="#000"
         stroke-width=".1875"
         stroke-linejoin="round"
         id="path815" />
    </marker>
    <marker
       orient="auto"
       id="d"
       overflow="visible">
      <path
         d="M-1.926-1.21L1.352-.005l-3.278 1.206a2.05 2.05 0 0 0 0-2.411z"
         fill-rule="evenodd"
         stroke="#000"
         stroke-width=".1875"
         stroke-linejoin="round"
         id="path818" />
    </marker>
    <marker
       orient="auto"
       id="e"
       overflow="visible">
      <path
         d="M-1.926-1.21L1.352-.005l-3.278 1.206a2.05 2.05 0 0 0 0-2.411z"
         fill-rule="evenodd"
         stroke="#000"
         stroke-width=".1875"
         stroke-linejoin="round"
         id="path821" />
    </marker>
    <marker
       orient="auto"
       id="f"
       overflow="visible">
      <path
         d="M-1.926-1.21L1.352-.005l-3.278 1.206a2.05 2.05 0 0 0 0-2.411z"
         fill-rule="evenodd"
         stroke="#000"
         stroke-width=".1875"
         stroke-linejoin="round"
         id="path824" />
    </marker>
    <marker
       orient="auto"
       id="g"
       overflow="visible">
      <path
         d="M-1.926-1.21L1.352-.005l-3.278 1.206a2.05 2.05 0 0 0 0-2.411z"
         fill-rule="evenodd"
         stroke="#000"
         stroke-width=".1875"
         stroke-linejoin="round"
         id="path827" />
    </marker>
    <marker
       orient="auto"
       id="h"
       overflow="visible">
      <path
         d="M-1.926-1.21L1.352-.005l-3.278 1.206a2.05 2.05 0 0 0 0-2.411z"
         fill-rule="evenodd"
         stroke="#000"
         stroke-width=".1875"
         stroke-linejoin="round"
         id="path830" />
    </marker>
  </defs>
  <g
     transform="translate(-18.971 -37.25)"
     id="g889">
    <path
       class="cls-1"
       d="M50.39 54.013v-2.638a7.105 7.105 0 1 0-12.1-5.987h-2.135a4.055 4.055 0 0 0-2.034 7.57v2.225a6.087 6.087 0 0 1 2.034-11.828c.173 0 .345.036.508.051A9.151 9.151 0 1 1 50.39 54.013zm-11.775.678l2.624 1.772V48.44a1.017 1.017 0 0 1 2.033 0v8.024l2.624-1.772a.895.895 0 0 1 1.322.413 1.236 1.236 0 0 1-.356 1.543l-3.823 2.582a.196.196 0 0 1-.051.04.908.908 0 0 1-.255.22.848.848 0 0 1-.376.111.086.086 0 0 0-.02 0l-.03.008c-.02 0-.03.009-.051.009a.223.223 0 0 1-.051-.01l-.03-.007a.162.162 0 0 0-.03-.006.872.872 0 0 1-.265-.053c-.03-.015-.061-.038-.102-.057a1.211 1.211 0 0 1-.193-.132c-.03-.03-.051-.074-.082-.109L37.65 56.64a1.236 1.236 0 0 1-.355-1.543.895.895 0 0 1 1.321-.406z"
       id="path835" />
    <path
       fill="none"
       stroke="#030000"
       stroke-width="1.5"
       d="M19.971 69.274h44.573v18.813H19.971z"
       id="path837" />
    <circle
       cx="42.258"
       cy="124.221"
       r="11.867"
       fill="none"
       stroke="#030000"
       stroke-width="2"
       id="circle839" />
    <path
       class="cls-1"
       d="M187.49 138.294v-2.638a7.105 7.105 0 1 0-12.1-5.987h-2.136a4.055 4.055 0 0 0-2.034 7.57v2.225a6.087 6.087 0 0 1 2.034-11.828c.173 0 .346.036.508.051a9.151 9.151 0 1 1 13.727 10.607zm-11.775.678l2.623 1.772v-8.024a1.017 1.017 0 0 1 2.034 0v8.024l2.623-1.772a.895.895 0 0 1 1.322.413 1.236 1.236 0 0 1-.356 1.543l-3.823 2.582a.196.196 0 0 1-.051.04.908.908 0 0 1-.254.22.848.848 0 0 1-.377.111.086.086 0 0 0-.02 0l-.03.007c-.02 0-.03.01-.051.01a.223.223 0 0 1-.05-.01l-.031-.007a.162.162 0 0 0-.03-.006.872.872 0 0 1-.265-.053c-.03-.015-.061-.038-.102-.057a1.211 1.211 0 0 1-.193-.132c-.03-.03-.05-.074-.081-.109l-3.854-2.603a1.236 1.236 0 0 1-.356-1.543.895.895 0 0 1 1.322-.406z"
       id="path841" />
    <text
       style="line-height:1.25"
       x="69.465"
       y="46.298"
       font-weight="400"
       font-size="8.467"
       font-family="sans-serif"
       letter-spacing="0"
       word-spacing="0"
       stroke-width=".265"
       id="text847">
      <tspan
         x="69.465"
         y="46.298"
         style="-inkscape-font-specification:'Roboto Slab'"
         font-family="Roboto Slab"
         id="tspan843">Project</tspan>
      <tspan
         x="69.465"
         y="56.881"
         style="-inkscape-font-specification:'Roboto Slab'"
         font-family="Roboto Slab"
         id="tspan845">Download</tspan>
    </text>
    <text
       style="line-height:1.25"
       x="69.465"
       y="76.545"
       font-weight="400"
       font-size="8.467"
       font-family="sans-serif"
       letter-spacing="0"
       word-spacing="0"
       stroke-width=".265"
       id="text853">
      <tspan
         x="69.465"
         y="76.545"
         style="-inkscape-font-specification:'Roboto Slab'"
         font-family="Roboto Slab"
         id="tspan849">Directory of</tspan>
      <tspan
         x="69.465"
         y="87.128"
         style="-inkscape-font-specification:'Roboto Slab'"
         font-family="Roboto Slab"
         id="tspan851">R Files</tspan>
    </text>
    <path
       id="a"
       fill="none"
       stroke="#030000"
       stroke-width="1.5"
       d="M19.971 160.355h44.573v18.813H19.971z" />
    <circle
       cx="109.637"
       cy="149.365"
       r="11.867"
       fill="none"
       stroke="#030000"
       stroke-width="2"
       id="circle856" />
    <path
       fill="none"
       stroke="#030000"
       stroke-width="1.5"
       d="M157.07 160.355h44.573v18.813H157.07z"
       id="path858" />
    <text
       style="font-weight:400;font-size:8.46700001px;line-height:1.25;font-family:sans-serif;letter-spacing:0;word-spacing:0;stroke-width:0.26499999"
       x="60.055"
       y="126.557"
       font-weight="400"
       font-size="8.467"
       letter-spacing="0"
       word-spacing="0"
       id="text866">
      <tspan
         x="60.055"
         y="126.557"
         style="line-height:0"
         id="tspan864">
        <tspan
           style="font-family:FreeMono;-inkscape-font-specification:FreeMono"
           id="tspan860"></tspan>
      </tspan>
    </text>
    <text
       style="font-style:normal;font-variant:normal;font-weight:normal;font-stretch:normal;font-size:8.46701622px;line-height:1.25;font-family:'Roboto Slab';-inkscape-font-specification:'Roboto Slab, Normal';font-variant-ligatures:normal;font-variant-caps:normal;font-variant-numeric:normal;font-feature-settings:normal;text-align:start;letter-spacing:0;word-spacing:0;writing-mode:lr-tb;text-anchor:start;stroke-width:0.26499999"
       x="58.16618"
       y="119.00171"
       font-weight="400"
       font-size="8.467"
       letter-spacing="0"
       word-spacing="0"
       id="text972">
      <tspan
         sodipodi:role="line"
         id="tspan979"
         style="font-style:italic;font-variant:normal;font-weight:normal;font-stretch:normal;font-size:7.05555296px;line-height:0;font-family:FreeMono;-inkscape-font-specification:FreeMono"
         x="58.16618"
         y="119.00171"
         dy="1.8400009">installLib.sh</tspan>
      <tspan
         sodipodi:role="line"
         id="tspan981"
         style="font-size:7.05555296px;line-height:0"
         x="58.16618"
         y="129.58548"><tspan
   style="font-style:normal;font-variant:normal;font-weight:normal;font-stretch:normal;font-size:7.05555296px;line-height:0;font-family:FreeMono;-inkscape-font-specification:FreeMono"
   id="tspan983">bash</tspan>
 script</tspan>
    </text>
    <path
       id="b"
       fill="none"
       stroke-width="2.712"
       d="M76.654 173.523h68.307v22.576H76.654z" />
    <path
       d="M42.258 91.394v14.761"
       fill="none"
       stroke="#000"
       stroke-width="2"
       marker-end="url(#c)"
       id="path869" />
    <path
       d="M42.248 139.395v14.761"
       fill="none"
       stroke="#000"
       stroke-width="2"
       marker-end="url(#d)"
       id="path871" />
    <path
       d="M69.31 170.373l21.708-13.025"
       fill="none"
       stroke="#000"
       stroke-width="2"
       marker-end="url(#e)"
       id="path873" />
    <path
       d="M126.216 142.082s11.404-5.927 17.51-7.815c5.669-1.752 17.512-3.184 17.512-3.184"
       fill="none"
       stroke="#000"
       stroke-width="2"
       marker-end="url(#f)"
       id="path875" />
    <path
       d="M152.658 172.416s-8.661-1.416-12.446-3.473c-4.864-2.644-12.445-10.999-12.445-10.999"
       fill="none"
       stroke="#000"
       stroke-width="2"
       marker-end="url(#g)"
       id="path877" />
    <text
       style="line-height:1.25"
       x="146.212"
       y="116.102"
       font-weight="400"
       font-size="10.583"
       font-family="sans-serif"
       letter-spacing="0"
       word-spacing="0"
       stroke-width=".265"
       id="text885">
      <tspan
         x="146.212"
         y="116.102"
         font-size="8.467"
         id="tspan883">
        <tspan
           style="-inkscape-font-specification:FreeMono"
           font-family="FreeMono"
           id="tspan879">cran</tspan>
        <tspan
           style="-inkscape-font-specification:'Roboto Slab'"
           font-family="Roboto Slab"
           id="tspan881">repository</tspan>
      </tspan>
    </text>
    <path
       d="M194.203 133.614s5.255 4.932 5.788 8.249c.585 3.631-3.183 10.564-3.183 10.564"
       fill="none"
       stroke="#000"
       stroke-width="2"
       marker-end="url(#h)"
       id="path887" />
    <text
       style="font-style:normal;font-variant:normal;font-weight:normal;font-stretch:normal;font-size:7.05555296px;line-height:1.25;font-family:'Roboto Slab';-inkscape-font-specification:'Roboto Slab, Normal';font-variant-ligatures:normal;font-variant-caps:normal;font-variant-numeric:normal;font-feature-settings:normal;text-align:start;letter-spacing:0;word-spacing:0;writing-mode:lr-tb;text-anchor:start;stroke-width:0.26499999"
       x="22.321194"
       y="167.28619"
       font-weight="400"
       font-size="8.467"
       letter-spacing="0"
       word-spacing="0"
       id="text853-3">
      <tspan
         sodipodi:role="line"
         id="tspan924"
         x="22.321194"
         y="167.28619">Local</tspan>
      <tspan
         sodipodi:role="line"
         id="tspan926"
         x="22.321194"
         y="176.10564">R packages</tspan>
    </text>
    <text
       style="font-style:normal;font-variant:normal;font-weight:normal;font-stretch:normal;font-size:7.05555296px;line-height:1.25;font-family:'Roboto Slab';-inkscape-font-specification:'Roboto Slab, Normal';font-variant-ligatures:normal;font-variant-caps:normal;font-variant-numeric:normal;font-feature-settings:normal;text-align:start;letter-spacing:0;word-spacing:0;writing-mode:lr-tb;text-anchor:start;stroke-width:0.26499999"
       x="81.963417"
       y="177.19189"
       font-weight="400"
       font-size="8.467"
       letter-spacing="0"
       word-spacing="0"
       id="text853-3-3">
      <tspan
         style="stroke-width:0.26499999"
         sodipodi:role="line"
         id="tspan926-1"
         x="81.963417"
         y="177.19189">Check packages</tspan>
    </text>
    <text
       style="font-style:normal;font-variant:normal;font-weight:normal;font-stretch:normal;font-size:7.05555296px;line-height:1.25;font-family:'Roboto Slab';-inkscape-font-specification:'Roboto Slab, Normal';font-variant-ligatures:normal;font-variant-caps:normal;font-variant-numeric:normal;font-feature-settings:normal;text-align:start;letter-spacing:0;word-spacing:0;writing-mode:lr-tb;text-anchor:start;stroke-width:0.26499999"
       x="159.31743"
       y="167.28619"
       font-weight="400"
       font-size="8.467"
       letter-spacing="0"
       word-spacing="0"
       id="text853-3-5">
      <tspan
         style="stroke-width:0.26499999"
         sodipodi:role="line"
         id="tspan924-9"
         x="159.31743"
         y="167.28619">Installed</tspan>
      <tspan
         style="stroke-width:0.26499999"
         sodipodi:role="line"
         id="tspan926-9"
         x="159.31743"
         y="176.10564">R packages</tspan>
    </text>
  </g>
</svg>
